<svg xmlns="http://www.w3.org/2000/svg" xmlns:xlink="http://www.w3.org/1999/xlink" width="401" zoomAndPan="magnify" viewBox="0 0 300.75 88.499997" height="118" preserveAspectRatio="xMidYMid meet" version="1.0"><defs><g/></defs><g fill="#1dd3b0" fill-opacity="1"><g transform="translate(1.460384, 50.116236)"><g><path d="M 23.859375 -10.296875 C 23.859375 -11.828125 23.316406 -13 22.234375 -13.8125 C 21.160156 -14.632812 19.21875 -15.5 16.40625 -16.40625 C 13.601562 -17.3125 11.382812 -18.203125 9.75 -19.078125 C 5.300781 -21.492188 3.078125 -24.738281 3.078125 -28.8125 C 3.078125 -30.9375 3.671875 -32.828125 4.859375 -34.484375 C 6.054688 -36.148438 7.773438 -37.445312 10.015625 -38.375 C 12.253906 -39.3125 14.765625 -39.78125 17.546875 -39.78125 C 20.347656 -39.78125 22.84375 -39.269531 25.03125 -38.25 C 27.226562 -37.238281 28.929688 -35.804688 30.140625 -33.953125 C 31.359375 -32.109375 31.96875 -30.007812 31.96875 -27.65625 L 23.875 -27.65625 C 23.875 -29.445312 23.304688 -30.84375 22.171875 -31.84375 C 21.046875 -32.84375 19.457031 -33.34375 17.40625 -33.34375 C 15.4375 -33.34375 13.898438 -32.925781 12.796875 -32.09375 C 11.703125 -31.257812 11.15625 -30.15625 11.15625 -28.78125 C 11.15625 -27.507812 11.796875 -26.441406 13.078125 -25.578125 C 14.367188 -24.710938 16.265625 -23.90625 18.765625 -23.15625 C 23.359375 -21.769531 26.707031 -20.050781 28.8125 -18 C 30.914062 -15.957031 31.96875 -13.40625 31.96875 -10.34375 C 31.96875 -6.945312 30.679688 -4.28125 28.109375 -2.34375 C 25.546875 -0.414062 22.085938 0.546875 17.734375 0.546875 C 14.710938 0.546875 11.960938 -0.00390625 9.484375 -1.109375 C 7.003906 -2.222656 5.113281 -3.738281 3.8125 -5.65625 C 2.507812 -7.582031 1.859375 -9.8125 1.859375 -12.34375 L 9.96875 -12.34375 C 9.96875 -8.007812 12.554688 -5.84375 17.734375 -5.84375 C 19.660156 -5.84375 21.160156 -6.234375 22.234375 -7.015625 C 23.316406 -7.796875 23.859375 -8.890625 23.859375 -10.296875 Z M 23.859375 -10.296875 "/></g></g></g><g fill="#1dd3b0" fill-opacity="1"><g transform="translate(35.389463, 50.116236)"><g><path d="M 11.59375 -13.828125 L 11.59375 0 L 3.5 0 L 3.5 -39.25 L 18.8125 -39.25 C 21.757812 -39.25 24.351562 -38.707031 26.59375 -37.625 C 28.832031 -36.550781 30.550781 -35.019531 31.75 -33.03125 C 32.957031 -31.039062 33.5625 -28.78125 33.5625 -26.25 C 33.5625 -22.40625 32.242188 -19.375 29.609375 -17.15625 C 26.972656 -14.9375 23.328125 -13.828125 18.671875 -13.828125 Z M 11.59375 -20.375 L 18.8125 -20.375 C 20.945312 -20.375 22.578125 -20.875 23.703125 -21.875 C 24.828125 -22.882812 25.390625 -24.328125 25.390625 -26.203125 C 25.390625 -28.117188 24.820312 -29.671875 23.6875 -30.859375 C 22.5625 -32.046875 21 -32.660156 19 -32.703125 L 11.59375 -32.703125 Z M 11.59375 -20.375 "/></g></g></g><g fill="#1dd3b0" fill-opacity="1"><g transform="translate(70.989393, 50.116236)"><g><path d="M 35.734375 -18.734375 C 35.734375 -14.867188 35.050781 -11.476562 33.6875 -8.5625 C 32.320312 -5.65625 30.367188 -3.410156 27.828125 -1.828125 C 25.285156 -0.242188 22.367188 0.546875 19.078125 0.546875 C 15.828125 0.546875 12.925781 -0.234375 10.375 -1.796875 C 7.820312 -3.367188 5.84375 -5.601562 4.4375 -8.5 C 3.039062 -11.40625 2.332031 -14.742188 2.3125 -18.515625 L 2.3125 -20.453125 C 2.3125 -24.316406 3.007812 -27.71875 4.40625 -30.65625 C 5.800781 -33.59375 7.769531 -35.847656 10.3125 -37.421875 C 12.851562 -38.992188 15.757812 -39.78125 19.03125 -39.78125 C 22.300781 -39.78125 25.207031 -38.992188 27.75 -37.421875 C 30.289062 -35.847656 32.253906 -33.59375 33.640625 -30.65625 C 35.035156 -27.71875 35.734375 -24.328125 35.734375 -20.484375 Z M 27.546875 -20.515625 C 27.546875 -24.628906 26.804688 -27.753906 25.328125 -29.890625 C 23.859375 -32.023438 21.757812 -33.09375 19.03125 -33.09375 C 16.3125 -33.09375 14.21875 -32.035156 12.75 -29.921875 C 11.28125 -27.816406 10.535156 -24.722656 10.515625 -20.640625 L 10.515625 -18.734375 C 10.515625 -14.722656 11.25 -11.613281 12.71875 -9.40625 C 14.195312 -7.195312 16.316406 -6.09375 19.078125 -6.09375 C 21.796875 -6.09375 23.878906 -7.15625 25.328125 -9.28125 C 26.785156 -11.414062 27.523438 -14.519531 27.546875 -18.59375 Z M 27.546875 -20.515625 "/></g></g></g><g fill="#1dd3b0" fill-opacity="1"><g transform="translate(109.095601, 50.116236)"><g><path d="M 33.046875 -32.703125 L 21.03125 -32.703125 L 21.03125 0 L 12.9375 0 L 12.9375 -32.703125 L 1.078125 -32.703125 L 1.078125 -39.25 L 33.046875 -39.25 Z M 33.046875 -32.703125 "/></g></g></g><g fill="#1dd3b0" fill-opacity="1"><g transform="translate(143.240273, 50.116236)"><g><path d="M 11.59375 -6.5 L 28.765625 -6.5 L 28.765625 0 L 3.5 0 L 3.5 -39.25 L 11.59375 -39.25 Z M 11.59375 -6.5 "/></g></g></g><g fill="#1dd3b0" fill-opacity="1"><g transform="translate(173.126967, 50.116236)"><g><path d="M 12.109375 0 L 4.015625 0 L 4.015625 -39.25 L 12.109375 -39.25 Z M 12.109375 0 "/></g></g></g><g fill="#1dd3b0" fill-opacity="1"><g transform="translate(189.215656, 50.116236)"><g><path d="M 34.5625 -4.953125 C 33.101562 -3.210938 31.039062 -1.859375 28.375 -0.890625 C 25.71875 0.0664062 22.773438 0.546875 19.546875 0.546875 C 16.148438 0.546875 13.171875 -0.191406 10.609375 -1.671875 C 8.046875 -3.160156 6.066406 -5.316406 4.671875 -8.140625 C 3.285156 -10.960938 2.570312 -14.28125 2.53125 -18.09375 L 2.53125 -20.75 C 2.53125 -24.664062 3.191406 -28.054688 4.515625 -30.921875 C 5.835938 -33.796875 7.742188 -35.988281 10.234375 -37.5 C 12.722656 -39.019531 15.632812 -39.78125 18.96875 -39.78125 C 23.625 -39.78125 27.265625 -38.671875 29.890625 -36.453125 C 32.515625 -34.234375 34.070312 -31.003906 34.5625 -26.765625 L 26.6875 -26.765625 C 26.320312 -29.015625 25.523438 -30.660156 24.296875 -31.703125 C 23.066406 -32.742188 21.375 -33.265625 19.21875 -33.265625 C 16.46875 -33.265625 14.375 -32.226562 12.9375 -30.15625 C 11.5 -28.09375 10.769531 -25.019531 10.75 -20.9375 L 10.75 -18.4375 C 10.75 -14.320312 11.53125 -11.210938 13.09375 -9.109375 C 14.65625 -7.003906 16.945312 -5.953125 19.96875 -5.953125 C 23.007812 -5.953125 25.175781 -6.597656 26.46875 -7.890625 L 26.46875 -14.65625 L 19.109375 -14.65625 L 19.109375 -20.625 L 34.5625 -20.625 Z M 34.5625 -4.953125 "/></g></g></g><g fill="#1dd3b0" fill-opacity="1"><g transform="translate(226.80983, 50.116236)"><g><path d="M 35.453125 0 L 27.359375 0 L 27.359375 -16.8125 L 11.59375 -16.8125 L 11.59375 0 L 3.5 0 L 3.5 -39.25 L 11.59375 -39.25 L 11.59375 -23.34375 L 27.359375 -23.34375 L 27.359375 -39.25 L 35.453125 -39.25 Z M 35.453125 0 "/></g></g></g><g fill="#1dd3b0" fill-opacity="1"><g transform="translate(265.805364, 50.116236)"><g><path d="M 33.046875 -32.703125 L 21.03125 -32.703125 L 21.03125 0 L 12.9375 0 L 12.9375 -32.703125 L 1.078125 -32.703125 L 1.078125 -39.25 L 33.046875 -39.25 Z M 33.046875 -32.703125 "/></g></g></g><g fill="#3c1642" fill-opacity="1"><g transform="translate(43.876705, 82.80821)"><g><path d="M 9.3125 -5.84375 L 3.984375 -5.84375 L 3.984375 -2.234375 L 10.25 -2.234375 L 10.25 0 L 1.203125 0 L 1.203125 -13.484375 L 10.21875 -13.484375 L 10.21875 -11.234375 L 3.984375 -11.234375 L 3.984375 -8.015625 L 9.3125 -8.015625 Z M 9.3125 -5.84375 "/></g></g></g><g fill="#3c1642" fill-opacity="1"><g transform="translate(54.543624, 82.80821)"><g><path d="M 12.171875 0 L 9.390625 0 L 3.984375 -8.875 L 3.984375 0 L 1.203125 0 L 1.203125 -13.484375 L 3.984375 -13.484375 L 9.40625 -4.59375 L 9.40625 -13.484375 L 12.171875 -13.484375 Z M 12.171875 0 "/></g></g></g><g fill="#3c1642" fill-opacity="1"><g transform="translate(67.93283, 82.80821)"><g><path d="M 11.796875 -4.484375 C 11.691406 -3.035156 11.15625 -1.894531 10.1875 -1.0625 C 9.21875 -0.226562 7.941406 0.1875 6.359375 0.1875 C 4.628906 0.1875 3.269531 -0.394531 2.28125 -1.5625 C 1.289062 -2.726562 0.796875 -4.328125 0.796875 -6.359375 L 0.796875 -7.171875 C 0.796875 -8.472656 1.023438 -9.617188 1.484375 -10.609375 C 1.941406 -11.597656 2.59375 -12.351562 3.4375 -12.875 C 4.289062 -13.40625 5.28125 -13.671875 6.40625 -13.671875 C 7.957031 -13.671875 9.207031 -13.253906 10.15625 -12.421875 C 11.113281 -11.585938 11.664062 -10.414062 11.8125 -8.90625 L 9.03125 -8.90625 C 8.957031 -9.78125 8.710938 -10.410156 8.296875 -10.796875 C 7.878906 -11.191406 7.25 -11.390625 6.40625 -11.390625 C 5.476562 -11.390625 4.78125 -11.054688 4.3125 -10.390625 C 3.851562 -9.734375 3.617188 -8.707031 3.609375 -7.3125 L 3.609375 -6.28125 C 3.609375 -4.832031 3.828125 -3.769531 4.265625 -3.09375 C 4.710938 -2.414062 5.410156 -2.078125 6.359375 -2.078125 C 7.222656 -2.078125 7.863281 -2.273438 8.28125 -2.671875 C 8.707031 -3.066406 8.953125 -3.671875 9.015625 -4.484375 Z M 11.796875 -4.484375 "/></g></g></g><g fill="#3c1642" fill-opacity="1"><g transform="translate(80.340531, 82.80821)"><g><path d="M 12.28125 -6.4375 C 12.28125 -5.113281 12.046875 -3.945312 11.578125 -2.9375 C 11.109375 -1.9375 10.4375 -1.164062 9.5625 -0.625 C 8.6875 -0.0820312 7.6875 0.1875 6.5625 0.1875 C 5.4375 0.1875 4.4375 -0.078125 3.5625 -0.609375 C 2.6875 -1.148438 2.007812 -1.921875 1.53125 -2.921875 C 1.050781 -3.921875 0.804688 -5.066406 0.796875 -6.359375 L 0.796875 -7.03125 C 0.796875 -8.351562 1.035156 -9.519531 1.515625 -10.53125 C 1.992188 -11.539062 2.671875 -12.316406 3.546875 -12.859375 C 4.421875 -13.398438 5.414062 -13.671875 6.53125 -13.671875 C 7.65625 -13.671875 8.65625 -13.398438 9.53125 -12.859375 C 10.40625 -12.316406 11.082031 -11.539062 11.5625 -10.53125 C 12.039062 -9.519531 12.28125 -8.359375 12.28125 -7.046875 Z M 9.46875 -7.046875 C 9.46875 -8.460938 9.210938 -9.535156 8.703125 -10.265625 C 8.203125 -11.003906 7.476562 -11.375 6.53125 -11.375 C 5.601562 -11.375 4.882812 -11.007812 4.375 -10.28125 C 3.875 -9.5625 3.617188 -8.5 3.609375 -7.09375 L 3.609375 -6.4375 C 3.609375 -5.0625 3.859375 -3.992188 4.359375 -3.234375 C 4.867188 -2.472656 5.601562 -2.09375 6.5625 -2.09375 C 7.488281 -2.09375 8.203125 -2.457031 8.703125 -3.1875 C 9.203125 -3.914062 9.457031 -4.984375 9.46875 -6.390625 Z M 9.46875 -7.046875 "/></g></g></g><g fill="#3c1642" fill-opacity="1"><g transform="translate(93.433434, 82.80821)"><g><path d="M 12.171875 0 L 9.390625 0 L 3.984375 -8.875 L 3.984375 0 L 1.203125 0 L 1.203125 -13.484375 L 3.984375 -13.484375 L 9.40625 -4.59375 L 9.40625 -13.484375 L 12.171875 -13.484375 Z M 12.171875 0 "/></g></g></g><g fill="#3c1642" fill-opacity="1"><g transform="translate(106.822639, 82.80821)"><g><path d="M 11.359375 -11.234375 L 7.21875 -11.234375 L 7.21875 0 L 4.453125 0 L 4.453125 -11.234375 L 0.375 -11.234375 L 0.375 -13.484375 L 11.359375 -13.484375 Z M 11.359375 -11.234375 "/></g></g></g><g fill="#3c1642" fill-opacity="1"><g transform="translate(118.554399, 82.80821)"><g><path d="M 6.203125 -4.9375 L 3.984375 -4.9375 L 3.984375 0 L 1.203125 0 L 1.203125 -13.484375 L 6.21875 -13.484375 C 7.8125 -13.484375 9.039062 -13.128906 9.90625 -12.421875 C 10.769531 -11.710938 11.203125 -10.707031 11.203125 -9.40625 C 11.203125 -8.488281 11 -7.722656 10.59375 -7.109375 C 10.195312 -6.492188 9.597656 -6.003906 8.796875 -5.640625 L 11.703125 -0.125 L 11.703125 0 L 8.71875 0 Z M 3.984375 -7.1875 L 6.21875 -7.1875 C 6.914062 -7.1875 7.457031 -7.363281 7.84375 -7.71875 C 8.226562 -8.070312 8.421875 -8.5625 8.421875 -9.1875 C 8.421875 -9.820312 8.238281 -10.320312 7.875 -10.6875 C 7.507812 -11.050781 6.957031 -11.234375 6.21875 -11.234375 L 3.984375 -11.234375 Z M 3.984375 -7.1875 "/></g></g></g><g fill="#3c1642" fill-opacity="1"><g transform="translate(130.656537, 82.80821)"><g><path d="M 9.3125 -5.84375 L 3.984375 -5.84375 L 3.984375 -2.234375 L 10.25 -2.234375 L 10.25 0 L 1.203125 0 L 1.203125 -13.484375 L 10.21875 -13.484375 L 10.21875 -11.234375 L 3.984375 -11.234375 L 3.984375 -8.015625 L 9.3125 -8.015625 Z M 9.3125 -5.84375 "/></g></g></g><g fill="#3c1642" fill-opacity="1"><g transform="translate(141.323456, 82.80821)"><g/></g></g><g fill="#3c1642" fill-opacity="1"><g transform="translate(146.04579, 82.80821)"><g><path d="M 8.203125 -3.53125 C 8.203125 -4.0625 8.015625 -4.46875 7.640625 -4.75 C 7.265625 -5.03125 6.597656 -5.328125 5.640625 -5.640625 C 4.679688 -5.953125 3.921875 -6.257812 3.359375 -6.5625 C 1.828125 -7.382812 1.0625 -8.5 1.0625 -9.90625 C 1.0625 -10.632812 1.265625 -11.28125 1.671875 -11.84375 C 2.078125 -12.414062 2.664062 -12.863281 3.4375 -13.1875 C 4.207031 -13.507812 5.070312 -13.671875 6.03125 -13.671875 C 6.988281 -13.671875 7.84375 -13.492188 8.59375 -13.140625 C 9.351562 -12.796875 9.941406 -12.304688 10.359375 -11.671875 C 10.773438 -11.035156 10.984375 -10.3125 10.984375 -9.5 L 8.203125 -9.5 C 8.203125 -10.113281 8.007812 -10.59375 7.625 -10.9375 C 7.238281 -11.28125 6.691406 -11.453125 5.984375 -11.453125 C 5.304688 -11.453125 4.773438 -11.304688 4.390625 -11.015625 C 4.015625 -10.734375 3.828125 -10.359375 3.828125 -9.890625 C 3.828125 -9.453125 4.046875 -9.082031 4.484375 -8.78125 C 4.929688 -8.488281 5.585938 -8.210938 6.453125 -7.953125 C 8.023438 -7.484375 9.171875 -6.894531 9.890625 -6.1875 C 10.617188 -5.476562 10.984375 -4.601562 10.984375 -3.5625 C 10.984375 -2.394531 10.539062 -1.476562 9.65625 -0.8125 C 8.769531 -0.144531 7.582031 0.1875 6.09375 0.1875 C 5.050781 0.1875 4.101562 0 3.25 -0.375 C 2.40625 -0.757812 1.757812 -1.28125 1.3125 -1.9375 C 0.863281 -2.601562 0.640625 -3.367188 0.640625 -4.234375 L 3.421875 -4.234375 C 3.421875 -2.753906 4.3125 -2.015625 6.09375 -2.015625 C 6.75 -2.015625 7.265625 -2.144531 7.640625 -2.40625 C 8.015625 -2.675781 8.203125 -3.050781 8.203125 -3.53125 Z M 8.203125 -3.53125 "/></g></g></g><g fill="#3c1642" fill-opacity="1"><g transform="translate(157.703473, 82.80821)"><g><path d="M 9.3125 -5.84375 L 3.984375 -5.84375 L 3.984375 -2.234375 L 10.25 -2.234375 L 10.25 0 L 1.203125 0 L 1.203125 -13.484375 L 10.21875 -13.484375 L 10.21875 -11.234375 L 3.984375 -11.234375 L 3.984375 -8.015625 L 9.3125 -8.015625 Z M 9.3125 -5.84375 "/></g></g></g><g fill="#3c1642" fill-opacity="1"><g transform="translate(168.370392, 82.80821)"><g><path d="M 11.40625 -13.484375 L 11.40625 -4.609375 C 11.40625 -3.128906 10.941406 -1.957031 10.015625 -1.09375 C 9.097656 -0.238281 7.84375 0.1875 6.25 0.1875 C 4.664062 0.1875 3.410156 -0.226562 2.484375 -1.0625 C 1.566406 -1.894531 1.097656 -3.039062 1.078125 -4.5 L 1.078125 -13.484375 L 3.859375 -13.484375 L 3.859375 -4.578125 C 3.859375 -3.703125 4.066406 -3.0625 4.484375 -2.65625 C 4.910156 -2.25 5.5 -2.046875 6.25 -2.046875 C 7.8125 -2.046875 8.601562 -2.867188 8.625 -4.515625 L 8.625 -13.484375 Z M 11.40625 -13.484375 "/></g></g></g><g fill="#3c1642" fill-opacity="1"><g transform="translate(180.852169, 82.80821)"><g/></g></g><g fill="#3c1642" fill-opacity="1"><g transform="translate(185.574503, 82.80821)"><g><path d="M 9.3125 -5.84375 L 3.984375 -5.84375 L 3.984375 -2.234375 L 10.25 -2.234375 L 10.25 0 L 1.203125 0 L 1.203125 -13.484375 L 10.21875 -13.484375 L 10.21875 -11.234375 L 3.984375 -11.234375 L 3.984375 -8.015625 L 9.3125 -8.015625 Z M 9.3125 -5.84375 "/></g></g></g><g fill="#3c1642" fill-opacity="1"><g transform="translate(196.241423, 82.80821)"><g><path d="M 6.1875 -3.34375 L 9.25 -13.484375 L 12.34375 -13.484375 L 7.640625 0 L 4.75 0 L 0.0625 -13.484375 L 3.15625 -13.484375 Z M 6.1875 -3.34375 "/></g></g></g><g fill="#3c1642" fill-opacity="1"><g transform="translate(208.639864, 82.80821)"><g><path d="M 9.3125 -5.84375 L 3.984375 -5.84375 L 3.984375 -2.234375 L 10.25 -2.234375 L 10.25 0 L 1.203125 0 L 1.203125 -13.484375 L 10.21875 -13.484375 L 10.21875 -11.234375 L 3.984375 -11.234375 L 3.984375 -8.015625 L 9.3125 -8.015625 Z M 9.3125 -5.84375 "/></g></g></g><g fill="#3c1642" fill-opacity="1"><g transform="translate(219.306783, 82.80821)"><g><path d="M 12.171875 0 L 9.390625 0 L 3.984375 -8.875 L 3.984375 0 L 1.203125 0 L 1.203125 -13.484375 L 3.984375 -13.484375 L 9.40625 -4.59375 L 9.40625 -13.484375 L 12.171875 -13.484375 Z M 12.171875 0 "/></g></g></g><g fill="#3c1642" fill-opacity="1"><g transform="translate(232.695989, 82.80821)"><g><path d="M 11.359375 -11.234375 L 7.21875 -11.234375 L 7.21875 0 L 4.453125 0 L 4.453125 -11.234375 L 0.375 -11.234375 L 0.375 -13.484375 L 11.359375 -13.484375 Z M 11.359375 -11.234375 "/></g></g></g><g fill="#3c1642" fill-opacity="1"><g transform="translate(244.427748, 82.80821)"><g><path d="M 12.28125 -6.4375 C 12.28125 -5.113281 12.046875 -3.945312 11.578125 -2.9375 C 11.109375 -1.9375 10.4375 -1.164062 9.5625 -0.625 C 8.6875 -0.0820312 7.6875 0.1875 6.5625 0.1875 C 5.4375 0.1875 4.4375 -0.078125 3.5625 -0.609375 C 2.6875 -1.148438 2.007812 -1.921875 1.53125 -2.921875 C 1.050781 -3.921875 0.804688 -5.066406 0.796875 -6.359375 L 0.796875 -7.03125 C 0.796875 -8.351562 1.035156 -9.519531 1.515625 -10.53125 C 1.992188 -11.539062 2.671875 -12.316406 3.546875 -12.859375 C 4.421875 -13.398438 5.414062 -13.671875 6.53125 -13.671875 C 7.65625 -13.671875 8.65625 -13.398438 9.53125 -12.859375 C 10.40625 -12.316406 11.082031 -11.539062 11.5625 -10.53125 C 12.039062 -9.519531 12.28125 -8.359375 12.28125 -7.046875 Z M 9.46875 -7.046875 C 9.46875 -8.460938 9.210938 -9.535156 8.703125 -10.265625 C 8.203125 -11.003906 7.476562 -11.375 6.53125 -11.375 C 5.601562 -11.375 4.882812 -11.007812 4.375 -10.28125 C 3.875 -9.5625 3.617188 -8.5 3.609375 -7.09375 L 3.609375 -6.4375 C 3.609375 -5.0625 3.859375 -3.992188 4.359375 -3.234375 C 4.867188 -2.472656 5.601562 -2.09375 6.5625 -2.09375 C 7.488281 -2.09375 8.203125 -2.457031 8.703125 -3.1875 C 9.203125 -3.914062 9.457031 -4.984375 9.46875 -6.390625 Z M 9.46875 -7.046875 "/></g></g></g></svg>